<svg width="140" height="66" viewBox="0 0 140 66" fill="none" xmlns="http://www.w3.org/2000/svg">
<rect width="140" height="66" fill="white"/>
<path d="M27.7764 5H27.7743C26.9855 5 26.3066 5.58879 26.195 6.36963L23.8716 22.6341C23.7608 23.4091 24.2501 24.1368 25.0096 24.3267L25.7885 24.5214L25.3697 32.8977C25.342 33.4508 25.537 33.9764 25.9187 34.3776C26.3004 34.7789 26.8156 34.9999 27.3694 34.9999C28.4734 34.9999 29.3715 34.1018 29.3715 32.9978V6.59524C29.3715 5.71559 28.6559 5 27.7764 5ZM28.3996 32.9977C28.3996 33.5658 27.9374 34.0279 27.3694 34.0279C27.0844 34.0279 26.8193 33.9142 26.6229 33.7078C26.4264 33.5014 26.3261 33.2309 26.3404 32.9463L26.7791 24.1711C26.7907 23.9393 26.6367 23.7316 26.4116 23.6754L25.2453 23.3838C24.9705 23.3151 24.7936 23.0519 24.8336 22.7716L27.1572 6.50706C27.2007 6.20201 27.4661 5.97192 27.7742 5.97192H27.7763C28.12 5.97192 28.3996 6.25151 28.3996 6.59524V32.9977Z" fill="black"/>
<path d="M21.5955 5.46166C21.5821 5.19361 21.3535 4.98769 21.0859 5.00058C20.8179 5.014 20.6114 5.24214 20.6249 5.51019L21.0399 13.812H19.5227V5.48596C19.5227 5.21758 19.3051 5 19.0367 5C18.7684 5 18.5508 5.21758 18.5508 5.48596V13.8121H17.0336L17.4486 5.51026C17.462 5.2422 17.2555 5.01406 16.9875 5.00065C16.7195 4.98704 16.4913 5.19367 16.4779 5.46173L15.9889 15.241C15.9623 15.7736 16.2214 16.2882 16.6651 16.584L17.2523 16.9754C17.4114 17.0815 17.5029 17.2589 17.4973 17.45L17.0391 32.9461C17.024 33.4902 17.2246 34.0047 17.6041 34.3949C17.9836 34.7851 18.4923 35 19.0367 35C19.581 35 20.0898 34.7851 20.4693 34.3949C20.8487 34.0047 21.0495 33.4902 21.0343 32.9452L20.5761 17.45C20.5705 17.2589 20.6621 17.0815 20.8211 16.9754L21.4083 16.584C21.8519 16.2882 22.111 15.7736 22.0844 15.241L21.5955 5.46166ZM20.8693 15.7752L20.2821 16.1666C19.8423 16.4598 19.5891 16.9503 19.6047 17.4786L20.0629 32.973C20.0707 33.2525 19.9676 33.5168 19.7727 33.7172C19.5777 33.9176 19.3164 34.028 19.0368 34.028C18.7572 34.028 18.4958 33.9176 18.3009 33.7172C18.106 33.5168 18.0029 33.2525 18.0107 32.9739L18.4689 17.4786C18.4845 16.9503 18.2313 16.4598 17.7915 16.1666L17.2043 15.7752C17.0439 15.6682 16.9502 15.4821 16.9598 15.2895L16.9851 14.7839H21.0886L21.1139 15.2895C21.1235 15.4821 21.0298 15.6682 20.8693 15.7752Z" fill="black"/>
<path d="M10.7431 5C9.73065 5 8.32901 5.50831 7.40153 7.93002C6.83108 9.41939 6.62866 11.1743 6.62866 12.2246C6.62866 13.6706 7.36661 14.984 8.60263 15.7382C8.94643 15.948 9.14613 16.3025 9.1368 16.6864L8.74019 32.9475C8.72691 33.4918 8.929 34.006 9.30929 34.3957C9.6895 34.7853 10.1987 34.9999 10.7431 34.9999C11.2875 34.9999 11.7968 34.7853 12.177 34.3957C12.5573 34.0061 12.7594 33.4918 12.7461 32.9475L12.3495 16.6865C12.3401 16.3025 12.5398 15.948 12.8836 15.7382C14.1197 14.984 14.8576 13.6705 14.8576 12.2246C14.8576 11.1743 14.6552 9.41945 14.0847 7.93002C13.1573 5.50831 11.7557 5 10.7431 5ZM12.3773 14.9085C11.7432 15.2954 11.3602 15.9857 11.3778 16.7101L11.7744 32.9711C11.7813 33.2514 11.6772 33.5162 11.4814 33.7168C11.2856 33.9175 11.0234 34.0279 10.7431 34.0279C10.4628 34.0279 10.2005 33.9175 10.0047 33.7169C9.80892 33.5163 9.70486 33.2514 9.71173 32.9711L10.1083 16.7101C10.126 15.9858 9.74302 15.2954 9.10881 14.9085C8.16436 14.3322 7.60052 13.3289 7.60052 12.2246C7.60052 10.1845 8.36866 5.97192 10.7431 5.97192C13.1175 5.97192 13.8856 10.1845 13.8856 12.2246C13.8857 13.3289 13.3219 14.3322 12.3773 14.9085Z" fill="black"/>
<path d="M48.1787 25L50.0312 16.1201H46.7432L46.9824 14.9785H54.8711L54.6318 16.1201H51.3711L49.5186 25H48.1787ZM57.6328 24.0977C57.2044 24.4668 56.792 24.738 56.3955 24.9111C55.999 25.0798 55.5752 25.1641 55.124 25.1641C54.4541 25.1641 53.9141 24.9681 53.5039 24.5762C53.0938 24.1797 52.8887 23.6738 52.8887 23.0586C52.8887 22.653 52.9798 22.2952 53.1621 21.9854C53.349 21.6709 53.5951 21.4202 53.9004 21.2334C54.2057 21.042 54.5794 20.9053 55.0215 20.8232C55.2995 20.7686 55.8258 20.7253 56.6006 20.6934C57.3799 20.6615 57.9382 20.5794 58.2754 20.4473C58.3711 20.11 58.4189 19.8298 58.4189 19.6064C58.4189 19.3193 58.3141 19.0938 58.1045 18.9297C57.8174 18.7018 57.3981 18.5879 56.8467 18.5879C56.3271 18.5879 55.901 18.7041 55.5684 18.9365C55.2402 19.1644 55.001 19.4902 54.8506 19.9141L53.5996 19.8047C53.8548 19.0846 54.2581 18.5332 54.8096 18.1504C55.3656 17.7676 56.0651 17.5762 56.9082 17.5762C57.806 17.5762 58.5169 17.7904 59.041 18.2188C59.4421 18.5378 59.6426 18.9525 59.6426 19.4629C59.6426 19.8503 59.5856 20.2992 59.4717 20.8096L59.0684 22.6143C58.9408 23.1885 58.877 23.6556 58.877 24.0156C58.877 24.2435 58.9271 24.5716 59.0273 25H57.7764C57.708 24.763 57.6602 24.4622 57.6328 24.0977ZM58.0908 21.3223C57.9176 21.3906 57.7308 21.443 57.5303 21.4795C57.3343 21.516 57.0039 21.5547 56.5391 21.5957C55.819 21.6595 55.3109 21.7415 55.0146 21.8418C54.7184 21.9375 54.4951 22.0924 54.3447 22.3066C54.1943 22.5208 54.1191 22.7578 54.1191 23.0176C54.1191 23.3639 54.2376 23.6488 54.4746 23.8721C54.7161 24.0954 55.0579 24.207 55.5 24.207C55.9102 24.207 56.3044 24.0999 56.6826 23.8857C57.0609 23.667 57.3594 23.3639 57.5781 22.9766C57.7969 22.5892 57.9678 22.0378 58.0908 21.3223ZM60.6475 22.5186L61.8848 22.4434C61.8848 22.7988 61.9395 23.1019 62.0488 23.3525C62.1582 23.6032 62.3587 23.8083 62.6504 23.9678C62.9466 24.1273 63.2907 24.207 63.6826 24.207C64.2295 24.207 64.6396 24.0977 64.9131 23.8789C65.1865 23.6602 65.3232 23.4027 65.3232 23.1064C65.3232 22.8923 65.2412 22.6895 65.0771 22.498C64.9085 22.3066 64.4961 22.0719 63.8398 21.7939C63.1882 21.5114 62.7712 21.3132 62.5889 21.1992C62.2835 21.0124 62.0534 20.7936 61.8984 20.543C61.7435 20.2878 61.666 19.9961 61.666 19.668C61.666 19.0938 61.8939 18.6016 62.3496 18.1914C62.8053 17.7812 63.4434 17.5762 64.2637 17.5762C65.1751 17.5762 65.8678 17.7881 66.3418 18.2119C66.8203 18.6312 67.0687 19.1849 67.0869 19.873L65.877 19.9551C65.8587 19.5176 65.7038 19.1712 65.4121 18.916C65.1204 18.6608 64.708 18.5332 64.1748 18.5332C63.7464 18.5332 63.4137 18.6312 63.1768 18.8271C62.9398 19.0231 62.8213 19.235 62.8213 19.4629C62.8213 19.6908 62.9238 19.8913 63.1289 20.0645C63.2656 20.1829 63.6188 20.3652 64.1885 20.6113C65.1364 21.0215 65.7334 21.3451 65.9795 21.582C66.3714 21.9603 66.5674 22.4206 66.5674 22.9629C66.5674 23.3229 66.4557 23.6761 66.2324 24.0225C66.0137 24.3688 65.6764 24.6468 65.2207 24.8564C64.7695 25.0615 64.2363 25.1641 63.6211 25.1641C62.7826 25.1641 62.0693 24.9567 61.4814 24.542C60.8936 24.1273 60.6156 23.4528 60.6475 22.5186ZM70.4229 23.9951L70.2178 25.0068C69.9215 25.0843 69.6344 25.123 69.3564 25.123C68.8643 25.123 68.4723 25.0023 68.1807 24.7607C67.9619 24.5785 67.8525 24.3301 67.8525 24.0156C67.8525 23.8561 67.9118 23.4893 68.0303 22.915L68.9121 18.6973H67.9346L68.1328 17.7402H69.1104L69.4863 15.9561L70.9014 15.1016L70.3477 17.7402H71.5645L71.3594 18.6973H70.1494L69.3086 22.71C69.2038 23.2204 69.1514 23.5257 69.1514 23.626C69.1514 23.7718 69.1924 23.8835 69.2744 23.9609C69.361 24.0384 69.5 24.0771 69.6914 24.0771C69.9648 24.0771 70.2087 24.0498 70.4229 23.9951ZM76.7598 22.5322L77.9629 22.6553C77.7897 23.2523 77.391 23.8197 76.7666 24.3574C76.1468 24.8952 75.4062 25.1641 74.5449 25.1641C74.0072 25.1641 73.5127 25.041 73.0615 24.7949C72.6149 24.5443 72.2731 24.182 72.0361 23.708C71.8037 23.234 71.6875 22.694 71.6875 22.0879C71.6875 21.2949 71.8698 20.527 72.2344 19.7842C72.6035 19.0368 73.0798 18.4831 73.6631 18.123C74.2464 17.7585 74.8776 17.5762 75.5566 17.5762C76.4225 17.5762 77.113 17.8451 77.6279 18.3828C78.1475 18.9206 78.4072 19.6543 78.4072 20.584C78.4072 20.9395 78.3753 21.304 78.3115 21.6777H72.9658C72.9476 21.819 72.9385 21.9466 72.9385 22.0605C72.9385 22.7396 73.0934 23.2591 73.4033 23.6191C73.7178 23.9746 74.1006 24.1523 74.5518 24.1523C74.9756 24.1523 75.3926 24.0133 75.8027 23.7354C76.2129 23.4574 76.5319 23.0563 76.7598 22.5322ZM73.1641 20.7344H77.2383C77.2428 20.6068 77.2451 20.5156 77.2451 20.4609C77.2451 19.8411 77.0902 19.3672 76.7803 19.0391C76.4704 18.7064 76.0716 18.54 75.584 18.54C75.0553 18.54 74.5723 18.7223 74.1348 19.0869C73.7018 19.4515 73.3783 20.0007 73.1641 20.7344ZM79.2139 25L80.7314 17.7402H81.9688L81.7158 18.9365C82.1761 18.4215 82.5863 18.0661 82.9463 17.8701C83.3109 17.6742 83.7051 17.5762 84.1289 17.5762C84.5801 17.5762 84.9561 17.6969 85.2568 17.9385C85.5622 18.1755 85.7627 18.5081 85.8584 18.9365C86.2275 18.4808 86.6149 18.1413 87.0205 17.918C87.4307 17.6901 87.8613 17.5762 88.3125 17.5762C88.9186 17.5762 89.3721 17.7197 89.6729 18.0068C89.9782 18.2939 90.1309 18.6973 90.1309 19.2168C90.1309 19.4401 90.0785 19.8092 89.9736 20.3242L88.9961 25H87.7588L88.7568 20.2012C88.8434 19.8092 88.8867 19.529 88.8867 19.3604C88.8867 19.1234 88.8115 18.9365 88.6611 18.7998C88.5107 18.6631 88.2988 18.5947 88.0254 18.5947C87.6562 18.5947 87.2803 18.7064 86.8975 18.9297C86.5146 19.153 86.2161 19.4469 86.002 19.8115C85.7923 20.1715 85.6077 20.7275 85.4482 21.4795L84.71 25H83.4727L84.498 20.0986C84.571 19.766 84.6074 19.529 84.6074 19.3877C84.6074 19.1507 84.5322 18.9593 84.3818 18.8135C84.236 18.6676 84.0446 18.5947 83.8076 18.5947C83.4567 18.5947 83.0876 18.7064 82.7002 18.9297C82.3174 19.153 82.0052 19.4652 81.7637 19.8662C81.5221 20.2627 81.3239 20.8301 81.1689 21.5684L80.4512 25H79.2139ZM95.7773 24.0977C95.349 24.4668 94.9365 24.738 94.54 24.9111C94.1436 25.0798 93.7197 25.1641 93.2686 25.1641C92.5986 25.1641 92.0586 24.9681 91.6484 24.5762C91.2383 24.1797 91.0332 23.6738 91.0332 23.0586C91.0332 22.653 91.1243 22.2952 91.3066 21.9854C91.4935 21.6709 91.7396 21.4202 92.0449 21.2334C92.3503 21.042 92.724 20.9053 93.166 20.8232C93.444 20.7686 93.9704 20.7253 94.7451 20.6934C95.5244 20.6615 96.0827 20.5794 96.4199 20.4473C96.5156 20.11 96.5635 19.8298 96.5635 19.6064C96.5635 19.3193 96.4587 19.0938 96.249 18.9297C95.9619 18.7018 95.5426 18.5879 94.9912 18.5879C94.4717 18.5879 94.0456 18.7041 93.7129 18.9365C93.3848 19.1644 93.1455 19.4902 92.9951 19.9141L91.7441 19.8047C91.9993 19.0846 92.4027 18.5332 92.9541 18.1504C93.5101 17.7676 94.2096 17.5762 95.0527 17.5762C95.9505 17.5762 96.6615 17.7904 97.1855 18.2188C97.5866 18.5378 97.7871 18.9525 97.7871 19.4629C97.7871 19.8503 97.7301 20.2992 97.6162 20.8096L97.2129 22.6143C97.0853 23.1885 97.0215 23.6556 97.0215 24.0156C97.0215 24.2435 97.0716 24.5716 97.1719 25H95.9209C95.8525 24.763 95.8047 24.4622 95.7773 24.0977ZM96.2354 21.3223C96.0622 21.3906 95.8753 21.443 95.6748 21.4795C95.4788 21.516 95.1484 21.5547 94.6836 21.5957C93.9635 21.6595 93.4554 21.7415 93.1592 21.8418C92.863 21.9375 92.6396 22.0924 92.4893 22.3066C92.3389 22.5208 92.2637 22.7578 92.2637 23.0176C92.2637 23.3639 92.3822 23.6488 92.6191 23.8721C92.8607 24.0954 93.2025 24.207 93.6445 24.207C94.0547 24.207 94.4489 24.0999 94.8271 23.8857C95.2054 23.667 95.5039 23.3639 95.7227 22.9766C95.9414 22.5892 96.1123 22.0378 96.2354 21.3223ZM98.6895 25L100.788 14.9785H102.019L100.72 21.1924L104.329 17.7402H105.963L102.866 20.4473L104.739 25H103.386L101.937 21.2744L100.433 22.5732L99.9268 25H98.6895ZM111.008 22.5322L112.211 22.6553C112.038 23.2523 111.639 23.8197 111.015 24.3574C110.395 24.8952 109.654 25.1641 108.793 25.1641C108.255 25.1641 107.761 25.041 107.31 24.7949C106.863 24.5443 106.521 24.182 106.284 23.708C106.052 23.234 105.936 22.694 105.936 22.0879C105.936 21.2949 106.118 20.527 106.482 19.7842C106.852 19.0368 107.328 18.4831 107.911 18.123C108.494 17.7585 109.126 17.5762 109.805 17.5762C110.671 17.5762 111.361 17.8451 111.876 18.3828C112.396 18.9206 112.655 19.6543 112.655 20.584C112.655 20.9395 112.623 21.304 112.56 21.6777H107.214C107.196 21.819 107.187 21.9466 107.187 22.0605C107.187 22.7396 107.341 23.2591 107.651 23.6191C107.966 23.9746 108.349 24.1523 108.8 24.1523C109.224 24.1523 109.641 24.0133 110.051 23.7354C110.461 23.4574 110.78 23.0563 111.008 22.5322ZM107.412 20.7344H111.486C111.491 20.6068 111.493 20.5156 111.493 20.4609C111.493 19.8411 111.338 19.3672 111.028 19.0391C110.718 18.7064 110.32 18.54 109.832 18.54C109.303 18.54 108.82 18.7223 108.383 19.0869C107.95 19.4515 107.626 20.0007 107.412 20.7344ZM113.469 25L114.986 17.7402H116.08L115.772 19.2236C116.146 18.6631 116.511 18.2484 116.866 17.9795C117.226 17.7106 117.593 17.5762 117.967 17.5762C118.213 17.5762 118.516 17.665 118.876 17.8428L118.37 18.9912C118.156 18.8363 117.921 18.7588 117.666 18.7588C117.233 18.7588 116.789 19.0003 116.333 19.4834C115.877 19.9665 115.52 20.8346 115.26 22.0879L114.645 25H113.469ZM118.247 22.5186L119.484 22.4434C119.484 22.7988 119.539 23.1019 119.648 23.3525C119.758 23.6032 119.958 23.8083 120.25 23.9678C120.546 24.1273 120.89 24.207 121.282 24.207C121.829 24.207 122.239 24.0977 122.513 23.8789C122.786 23.6602 122.923 23.4027 122.923 23.1064C122.923 22.8923 122.841 22.6895 122.677 22.498C122.508 22.3066 122.096 22.0719 121.439 21.7939C120.788 21.5114 120.371 21.3132 120.188 21.1992C119.883 21.0124 119.653 20.7936 119.498 20.543C119.343 20.2878 119.266 19.9961 119.266 19.668C119.266 19.0938 119.493 18.6016 119.949 18.1914C120.405 17.7812 121.043 17.5762 121.863 17.5762C122.775 17.5762 123.467 17.7881 123.941 18.2119C124.42 18.6312 124.668 19.1849 124.687 19.873L123.477 19.9551C123.458 19.5176 123.303 19.1712 123.012 18.916C122.72 18.6608 122.308 18.5332 121.774 18.5332C121.346 18.5332 121.013 18.6312 120.776 18.8271C120.539 19.0231 120.421 19.235 120.421 19.4629C120.421 19.6908 120.523 19.8913 120.729 20.0645C120.865 20.1829 121.218 20.3652 121.788 20.6113C122.736 21.0215 123.333 21.3451 123.579 21.582C123.971 21.9603 124.167 22.4206 124.167 22.9629C124.167 23.3229 124.055 23.6761 123.832 24.0225C123.613 24.3688 123.276 24.6468 122.82 24.8564C122.369 25.0615 121.836 25.1641 121.221 25.1641C120.382 25.1641 119.669 24.9567 119.081 24.542C118.493 24.1273 118.215 23.4528 118.247 22.5186Z" fill="#34ACA7"/>
</svg>
